%TF.GenerationSoftware,KiCad,Pcbnew,10.0.6*%
%TF.CreationDate,2026-09-12T23:49:27+05:30*%
%TF.ProjectId,ESP32SMARTROBOT,45535033-3253-44d4-9152-54524f424f54,rev?*%
%TF.SameCoordinates,Original*%
%TF.FileFunction,Legend,Top*%
%TF.FilePolarity,Positive*%
%FSLAX46Y46*%
G04 Gerber Fmt 4.6, Leading zero omitted, Abs format (unit mm)*
G04 Created by KiCad (PCBNEW 10.0.6) date 2026-09-12 23:49:27*
%MOMM*%
%LPD*%
G01*
G04 APERTURE LIST*
%ADD10C,0.062500*%
%ADD11C,0.100000*%
%ADD12C,0.300000*%
%ADD13C,0.150000*%
%ADD14C,0.120000*%
%ADD15C,0.127000*%
%ADD16C,0.200000*%
G04 APERTURE END LIST*
D10*
X184935559Y-119101739D02*
X184935559Y-119339834D01*
X184935559Y-119339834D02*
X185173654Y-119363643D01*
X185173654Y-119363643D02*
X185149845Y-119339834D01*
X185149845Y-119339834D02*
X185126035Y-119292215D01*
X185126035Y-119292215D02*
X185126035Y-119173167D01*
X185126035Y-119173167D02*
X185149845Y-119125548D01*
X185149845Y-119125548D02*
X185173654Y-119101739D01*
X185173654Y-119101739D02*
X185221273Y-119077929D01*
X185221273Y-119077929D02*
X185340321Y-119077929D01*
X185340321Y-119077929D02*
X185387940Y-119101739D01*
X185387940Y-119101739D02*
X185411750Y-119125548D01*
X185411750Y-119125548D02*
X185435559Y-119173167D01*
X185435559Y-119173167D02*
X185435559Y-119292215D01*
X185435559Y-119292215D02*
X185411750Y-119339834D01*
X185411750Y-119339834D02*
X185387940Y-119363643D01*
X184935559Y-118935072D02*
X185435559Y-118768406D01*
X185435559Y-118768406D02*
X184935559Y-118601739D01*
X185245083Y-118435073D02*
X185245083Y-118054121D01*
X185435559Y-118244597D02*
X185054607Y-118244597D01*
D11*
X189208646Y-70933609D02*
X189303884Y-70933609D01*
X189303884Y-70933609D02*
X189351503Y-70909800D01*
X189351503Y-70909800D02*
X189375312Y-70885990D01*
X189375312Y-70885990D02*
X189422931Y-70814561D01*
X189422931Y-70814561D02*
X189446741Y-70719323D01*
X189446741Y-70719323D02*
X189446741Y-70528847D01*
X189446741Y-70528847D02*
X189422931Y-70481228D01*
X189422931Y-70481228D02*
X189399122Y-70457419D01*
X189399122Y-70457419D02*
X189351503Y-70433609D01*
X189351503Y-70433609D02*
X189256265Y-70433609D01*
X189256265Y-70433609D02*
X189208646Y-70457419D01*
X189208646Y-70457419D02*
X189184836Y-70481228D01*
X189184836Y-70481228D02*
X189161027Y-70528847D01*
X189161027Y-70528847D02*
X189161027Y-70647895D01*
X189161027Y-70647895D02*
X189184836Y-70695514D01*
X189184836Y-70695514D02*
X189208646Y-70719323D01*
X189208646Y-70719323D02*
X189256265Y-70743133D01*
X189256265Y-70743133D02*
X189351503Y-70743133D01*
X189351503Y-70743133D02*
X189399122Y-70719323D01*
X189399122Y-70719323D02*
X189422931Y-70695514D01*
X189422931Y-70695514D02*
X189446741Y-70647895D01*
X189589598Y-70433609D02*
X189756264Y-70933609D01*
X189756264Y-70933609D02*
X189922931Y-70433609D01*
X190089597Y-70743133D02*
X190470550Y-70743133D01*
X190280073Y-70933609D02*
X190280073Y-70552657D01*
X191184835Y-70433609D02*
X191280073Y-70433609D01*
X191280073Y-70433609D02*
X191327692Y-70457419D01*
X191327692Y-70457419D02*
X191375311Y-70505038D01*
X191375311Y-70505038D02*
X191399121Y-70600276D01*
X191399121Y-70600276D02*
X191399121Y-70766942D01*
X191399121Y-70766942D02*
X191375311Y-70862180D01*
X191375311Y-70862180D02*
X191327692Y-70909800D01*
X191327692Y-70909800D02*
X191280073Y-70933609D01*
X191280073Y-70933609D02*
X191184835Y-70933609D01*
X191184835Y-70933609D02*
X191137216Y-70909800D01*
X191137216Y-70909800D02*
X191089597Y-70862180D01*
X191089597Y-70862180D02*
X191065788Y-70766942D01*
X191065788Y-70766942D02*
X191065788Y-70600276D01*
X191065788Y-70600276D02*
X191089597Y-70505038D01*
X191089597Y-70505038D02*
X191137216Y-70457419D01*
X191137216Y-70457419D02*
X191184835Y-70433609D01*
X191613407Y-70433609D02*
X191613407Y-70838371D01*
X191613407Y-70838371D02*
X191637217Y-70885990D01*
X191637217Y-70885990D02*
X191661026Y-70909800D01*
X191661026Y-70909800D02*
X191708645Y-70933609D01*
X191708645Y-70933609D02*
X191803883Y-70933609D01*
X191803883Y-70933609D02*
X191851502Y-70909800D01*
X191851502Y-70909800D02*
X191875312Y-70885990D01*
X191875312Y-70885990D02*
X191899121Y-70838371D01*
X191899121Y-70838371D02*
X191899121Y-70433609D01*
X192065789Y-70433609D02*
X192351503Y-70433609D01*
X192208646Y-70933609D02*
X192208646Y-70433609D01*
X189137217Y-75433609D02*
X189470550Y-75433609D01*
X189470550Y-75433609D02*
X189256265Y-75933609D01*
X189589598Y-75433609D02*
X189756264Y-75933609D01*
X189756264Y-75933609D02*
X189922931Y-75433609D01*
X190089597Y-75743133D02*
X190470550Y-75743133D01*
X190280073Y-75933609D02*
X190280073Y-75552657D01*
X191184835Y-75433609D02*
X191280073Y-75433609D01*
X191280073Y-75433609D02*
X191327692Y-75457419D01*
X191327692Y-75457419D02*
X191375311Y-75505038D01*
X191375311Y-75505038D02*
X191399121Y-75600276D01*
X191399121Y-75600276D02*
X191399121Y-75766942D01*
X191399121Y-75766942D02*
X191375311Y-75862180D01*
X191375311Y-75862180D02*
X191327692Y-75909800D01*
X191327692Y-75909800D02*
X191280073Y-75933609D01*
X191280073Y-75933609D02*
X191184835Y-75933609D01*
X191184835Y-75933609D02*
X191137216Y-75909800D01*
X191137216Y-75909800D02*
X191089597Y-75862180D01*
X191089597Y-75862180D02*
X191065788Y-75766942D01*
X191065788Y-75766942D02*
X191065788Y-75600276D01*
X191065788Y-75600276D02*
X191089597Y-75505038D01*
X191089597Y-75505038D02*
X191137216Y-75457419D01*
X191137216Y-75457419D02*
X191184835Y-75433609D01*
X191613407Y-75433609D02*
X191613407Y-75838371D01*
X191613407Y-75838371D02*
X191637217Y-75885990D01*
X191637217Y-75885990D02*
X191661026Y-75909800D01*
X191661026Y-75909800D02*
X191708645Y-75933609D01*
X191708645Y-75933609D02*
X191803883Y-75933609D01*
X191803883Y-75933609D02*
X191851502Y-75909800D01*
X191851502Y-75909800D02*
X191875312Y-75885990D01*
X191875312Y-75885990D02*
X191899121Y-75838371D01*
X191899121Y-75838371D02*
X191899121Y-75433609D01*
X192065789Y-75433609D02*
X192351503Y-75433609D01*
X192208646Y-75933609D02*
X192208646Y-75433609D01*
X189708646Y-73433609D02*
X189803884Y-73433609D01*
X189803884Y-73433609D02*
X189851503Y-73409800D01*
X189851503Y-73409800D02*
X189875312Y-73385990D01*
X189875312Y-73385990D02*
X189922931Y-73314561D01*
X189922931Y-73314561D02*
X189946741Y-73219323D01*
X189946741Y-73219323D02*
X189946741Y-73028847D01*
X189946741Y-73028847D02*
X189922931Y-72981228D01*
X189922931Y-72981228D02*
X189899122Y-72957419D01*
X189899122Y-72957419D02*
X189851503Y-72933609D01*
X189851503Y-72933609D02*
X189756265Y-72933609D01*
X189756265Y-72933609D02*
X189708646Y-72957419D01*
X189708646Y-72957419D02*
X189684836Y-72981228D01*
X189684836Y-72981228D02*
X189661027Y-73028847D01*
X189661027Y-73028847D02*
X189661027Y-73147895D01*
X189661027Y-73147895D02*
X189684836Y-73195514D01*
X189684836Y-73195514D02*
X189708646Y-73219323D01*
X189708646Y-73219323D02*
X189756265Y-73243133D01*
X189756265Y-73243133D02*
X189851503Y-73243133D01*
X189851503Y-73243133D02*
X189899122Y-73219323D01*
X189899122Y-73219323D02*
X189922931Y-73195514D01*
X189922931Y-73195514D02*
X189946741Y-73147895D01*
X190089598Y-72933609D02*
X190256264Y-73433609D01*
X190256264Y-73433609D02*
X190422931Y-72933609D01*
X190589597Y-73243133D02*
X190970550Y-73243133D01*
X190780073Y-73433609D02*
X190780073Y-73052657D01*
X191589597Y-73433609D02*
X191589597Y-72933609D01*
X191827692Y-73433609D02*
X191827692Y-72933609D01*
X191827692Y-72933609D02*
X192113406Y-73433609D01*
X192113406Y-73433609D02*
X192113406Y-72933609D01*
X189637217Y-77933609D02*
X189970550Y-77933609D01*
X189970550Y-77933609D02*
X189756265Y-78433609D01*
X190089598Y-77933609D02*
X190256264Y-78433609D01*
X190256264Y-78433609D02*
X190422931Y-77933609D01*
X190589597Y-78243133D02*
X190970550Y-78243133D01*
X190780073Y-78433609D02*
X190780073Y-78052657D01*
X191589597Y-78433609D02*
X191589597Y-77933609D01*
X191827692Y-78433609D02*
X191827692Y-77933609D01*
X191827692Y-77933609D02*
X192113406Y-78433609D01*
X192113406Y-78433609D02*
X192113406Y-77933609D01*
X177957419Y-119553258D02*
X177933609Y-119600877D01*
X177933609Y-119600877D02*
X177933609Y-119672306D01*
X177933609Y-119672306D02*
X177957419Y-119743734D01*
X177957419Y-119743734D02*
X178005038Y-119791353D01*
X178005038Y-119791353D02*
X178052657Y-119815163D01*
X178052657Y-119815163D02*
X178147895Y-119838972D01*
X178147895Y-119838972D02*
X178219323Y-119838972D01*
X178219323Y-119838972D02*
X178314561Y-119815163D01*
X178314561Y-119815163D02*
X178362180Y-119791353D01*
X178362180Y-119791353D02*
X178409800Y-119743734D01*
X178409800Y-119743734D02*
X178433609Y-119672306D01*
X178433609Y-119672306D02*
X178433609Y-119624687D01*
X178433609Y-119624687D02*
X178409800Y-119553258D01*
X178409800Y-119553258D02*
X178385990Y-119529449D01*
X178385990Y-119529449D02*
X178219323Y-119529449D01*
X178219323Y-119529449D02*
X178219323Y-119624687D01*
X178433609Y-119315163D02*
X177933609Y-119315163D01*
X177933609Y-119315163D02*
X178433609Y-119029449D01*
X178433609Y-119029449D02*
X177933609Y-119029449D01*
X178433609Y-118791353D02*
X177933609Y-118791353D01*
X177933609Y-118791353D02*
X177933609Y-118672305D01*
X177933609Y-118672305D02*
X177957419Y-118600877D01*
X177957419Y-118600877D02*
X178005038Y-118553258D01*
X178005038Y-118553258D02*
X178052657Y-118529448D01*
X178052657Y-118529448D02*
X178147895Y-118505639D01*
X178147895Y-118505639D02*
X178219323Y-118505639D01*
X178219323Y-118505639D02*
X178314561Y-118529448D01*
X178314561Y-118529448D02*
X178362180Y-118553258D01*
X178362180Y-118553258D02*
X178409800Y-118600877D01*
X178409800Y-118600877D02*
X178433609Y-118672305D01*
X178433609Y-118672305D02*
X178433609Y-118791353D01*
X178244360Y-99510157D02*
X178494360Y-99510157D01*
X178601503Y-99903014D02*
X178244360Y-99903014D01*
X178244360Y-99903014D02*
X178244360Y-99153014D01*
X178244360Y-99153014D02*
X178601503Y-99153014D01*
X179351502Y-99831585D02*
X179315788Y-99867300D01*
X179315788Y-99867300D02*
X179208645Y-99903014D01*
X179208645Y-99903014D02*
X179137217Y-99903014D01*
X179137217Y-99903014D02*
X179030074Y-99867300D01*
X179030074Y-99867300D02*
X178958645Y-99795871D01*
X178958645Y-99795871D02*
X178922931Y-99724442D01*
X178922931Y-99724442D02*
X178887217Y-99581585D01*
X178887217Y-99581585D02*
X178887217Y-99474442D01*
X178887217Y-99474442D02*
X178922931Y-99331585D01*
X178922931Y-99331585D02*
X178958645Y-99260157D01*
X178958645Y-99260157D02*
X179030074Y-99188728D01*
X179030074Y-99188728D02*
X179137217Y-99153014D01*
X179137217Y-99153014D02*
X179208645Y-99153014D01*
X179208645Y-99153014D02*
X179315788Y-99188728D01*
X179315788Y-99188728D02*
X179351502Y-99224442D01*
X179672931Y-99903014D02*
X179672931Y-99153014D01*
X179672931Y-99510157D02*
X180101502Y-99510157D01*
X180101502Y-99903014D02*
X180101502Y-99153014D01*
X180601502Y-99153014D02*
X180744359Y-99153014D01*
X180744359Y-99153014D02*
X180815788Y-99188728D01*
X180815788Y-99188728D02*
X180887216Y-99260157D01*
X180887216Y-99260157D02*
X180922931Y-99403014D01*
X180922931Y-99403014D02*
X180922931Y-99653014D01*
X180922931Y-99653014D02*
X180887216Y-99795871D01*
X180887216Y-99795871D02*
X180815788Y-99867300D01*
X180815788Y-99867300D02*
X180744359Y-99903014D01*
X180744359Y-99903014D02*
X180601502Y-99903014D01*
X180601502Y-99903014D02*
X180530074Y-99867300D01*
X180530074Y-99867300D02*
X180458645Y-99795871D01*
X180458645Y-99795871D02*
X180422931Y-99653014D01*
X180422931Y-99653014D02*
X180422931Y-99403014D01*
X180422931Y-99403014D02*
X180458645Y-99260157D01*
X180458645Y-99260157D02*
X180530074Y-99188728D01*
X180530074Y-99188728D02*
X180601502Y-99153014D01*
X181708645Y-99153014D02*
X182137217Y-99153014D01*
X181922931Y-99903014D02*
X181922931Y-99153014D01*
X182815788Y-99903014D02*
X182565788Y-99545871D01*
X182387217Y-99903014D02*
X182387217Y-99153014D01*
X182387217Y-99153014D02*
X182672931Y-99153014D01*
X182672931Y-99153014D02*
X182744360Y-99188728D01*
X182744360Y-99188728D02*
X182780074Y-99224442D01*
X182780074Y-99224442D02*
X182815788Y-99295871D01*
X182815788Y-99295871D02*
X182815788Y-99403014D01*
X182815788Y-99403014D02*
X182780074Y-99474442D01*
X182780074Y-99474442D02*
X182744360Y-99510157D01*
X182744360Y-99510157D02*
X182672931Y-99545871D01*
X182672931Y-99545871D02*
X182387217Y-99545871D01*
X183137217Y-99903014D02*
X183137217Y-99153014D01*
X176188728Y-100362782D02*
X176153014Y-100434211D01*
X176153014Y-100434211D02*
X176153014Y-100541353D01*
X176153014Y-100541353D02*
X176188728Y-100648496D01*
X176188728Y-100648496D02*
X176260157Y-100719925D01*
X176260157Y-100719925D02*
X176331585Y-100755639D01*
X176331585Y-100755639D02*
X176474442Y-100791353D01*
X176474442Y-100791353D02*
X176581585Y-100791353D01*
X176581585Y-100791353D02*
X176724442Y-100755639D01*
X176724442Y-100755639D02*
X176795871Y-100719925D01*
X176795871Y-100719925D02*
X176867300Y-100648496D01*
X176867300Y-100648496D02*
X176903014Y-100541353D01*
X176903014Y-100541353D02*
X176903014Y-100469925D01*
X176903014Y-100469925D02*
X176867300Y-100362782D01*
X176867300Y-100362782D02*
X176831585Y-100327068D01*
X176831585Y-100327068D02*
X176581585Y-100327068D01*
X176581585Y-100327068D02*
X176581585Y-100469925D01*
X176903014Y-100005639D02*
X176153014Y-100005639D01*
X176153014Y-100005639D02*
X176903014Y-99577068D01*
X176903014Y-99577068D02*
X176153014Y-99577068D01*
X176903014Y-99219925D02*
X176153014Y-99219925D01*
X176153014Y-99219925D02*
X176153014Y-99041354D01*
X176153014Y-99041354D02*
X176188728Y-98934211D01*
X176188728Y-98934211D02*
X176260157Y-98862782D01*
X176260157Y-98862782D02*
X176331585Y-98827068D01*
X176331585Y-98827068D02*
X176474442Y-98791354D01*
X176474442Y-98791354D02*
X176581585Y-98791354D01*
X176581585Y-98791354D02*
X176724442Y-98827068D01*
X176724442Y-98827068D02*
X176795871Y-98862782D01*
X176795871Y-98862782D02*
X176867300Y-98934211D01*
X176867300Y-98934211D02*
X176903014Y-99041354D01*
X176903014Y-99041354D02*
X176903014Y-99219925D01*
X126327693Y-78420038D02*
X126232455Y-78372419D01*
X126232455Y-78372419D02*
X126089598Y-78372419D01*
X126089598Y-78372419D02*
X125946741Y-78420038D01*
X125946741Y-78420038D02*
X125851503Y-78515276D01*
X125851503Y-78515276D02*
X125803884Y-78610514D01*
X125803884Y-78610514D02*
X125756265Y-78800990D01*
X125756265Y-78800990D02*
X125756265Y-78943847D01*
X125756265Y-78943847D02*
X125803884Y-79134323D01*
X125803884Y-79134323D02*
X125851503Y-79229561D01*
X125851503Y-79229561D02*
X125946741Y-79324800D01*
X125946741Y-79324800D02*
X126089598Y-79372419D01*
X126089598Y-79372419D02*
X126184836Y-79372419D01*
X126184836Y-79372419D02*
X126327693Y-79324800D01*
X126327693Y-79324800D02*
X126375312Y-79277180D01*
X126375312Y-79277180D02*
X126375312Y-78943847D01*
X126375312Y-78943847D02*
X126184836Y-78943847D01*
X126803884Y-79372419D02*
X126803884Y-78372419D01*
X126803884Y-78372419D02*
X127375312Y-79372419D01*
X127375312Y-79372419D02*
X127375312Y-78372419D01*
X127851503Y-79372419D02*
X127851503Y-78372419D01*
X127851503Y-78372419D02*
X128089598Y-78372419D01*
X128089598Y-78372419D02*
X128232455Y-78420038D01*
X128232455Y-78420038D02*
X128327693Y-78515276D01*
X128327693Y-78515276D02*
X128375312Y-78610514D01*
X128375312Y-78610514D02*
X128422931Y-78800990D01*
X128422931Y-78800990D02*
X128422931Y-78943847D01*
X128422931Y-78943847D02*
X128375312Y-79134323D01*
X128375312Y-79134323D02*
X128327693Y-79229561D01*
X128327693Y-79229561D02*
X128232455Y-79324800D01*
X128232455Y-79324800D02*
X128089598Y-79372419D01*
X128089598Y-79372419D02*
X127851503Y-79372419D01*
X126303884Y-83992867D02*
X126303884Y-82992867D01*
X126780074Y-83992867D02*
X126780074Y-82992867D01*
X126780074Y-82992867D02*
X127351502Y-83992867D01*
X127351502Y-83992867D02*
X127351502Y-82992867D01*
X127780074Y-83088105D02*
X127827693Y-83040486D01*
X127827693Y-83040486D02*
X127922931Y-82992867D01*
X127922931Y-82992867D02*
X128161026Y-82992867D01*
X128161026Y-82992867D02*
X128256264Y-83040486D01*
X128256264Y-83040486D02*
X128303883Y-83088105D01*
X128303883Y-83088105D02*
X128351502Y-83183343D01*
X128351502Y-83183343D02*
X128351502Y-83278581D01*
X128351502Y-83278581D02*
X128303883Y-83421438D01*
X128303883Y-83421438D02*
X127732455Y-83992867D01*
X127732455Y-83992867D02*
X128351502Y-83992867D01*
X126303884Y-87212755D02*
X126303884Y-86212755D01*
X126780074Y-87212755D02*
X126780074Y-86212755D01*
X126780074Y-86212755D02*
X127351502Y-87212755D01*
X127351502Y-87212755D02*
X127351502Y-86212755D01*
X127732455Y-86212755D02*
X128351502Y-86212755D01*
X128351502Y-86212755D02*
X128018169Y-86593707D01*
X128018169Y-86593707D02*
X128161026Y-86593707D01*
X128161026Y-86593707D02*
X128256264Y-86641326D01*
X128256264Y-86641326D02*
X128303883Y-86688945D01*
X128303883Y-86688945D02*
X128351502Y-86784183D01*
X128351502Y-86784183D02*
X128351502Y-87022278D01*
X128351502Y-87022278D02*
X128303883Y-87117516D01*
X128303883Y-87117516D02*
X128256264Y-87165136D01*
X128256264Y-87165136D02*
X128161026Y-87212755D01*
X128161026Y-87212755D02*
X127875312Y-87212755D01*
X127875312Y-87212755D02*
X127780074Y-87165136D01*
X127780074Y-87165136D02*
X127732455Y-87117516D01*
X126303884Y-90432643D02*
X126303884Y-89432643D01*
X126780074Y-90432643D02*
X126780074Y-89432643D01*
X126780074Y-89432643D02*
X127351502Y-90432643D01*
X127351502Y-90432643D02*
X127351502Y-89432643D01*
X128256264Y-89765976D02*
X128256264Y-90432643D01*
X128018169Y-89385024D02*
X127780074Y-90099309D01*
X127780074Y-90099309D02*
X128399121Y-90099309D01*
X126303884Y-93128721D02*
X126637217Y-93128721D01*
X126780074Y-93652531D02*
X126303884Y-93652531D01*
X126303884Y-93652531D02*
X126303884Y-92652531D01*
X126303884Y-92652531D02*
X126780074Y-92652531D01*
X127208646Y-93652531D02*
X127208646Y-92652531D01*
X127208646Y-92652531D02*
X127780074Y-93652531D01*
X127780074Y-93652531D02*
X127780074Y-92652531D01*
X128208646Y-93366816D02*
X128684836Y-93366816D01*
X128113408Y-93652531D02*
X128446741Y-92652531D01*
X128446741Y-92652531D02*
X128780074Y-93652531D01*
X126303884Y-96348609D02*
X126637217Y-96348609D01*
X126780074Y-96872419D02*
X126303884Y-96872419D01*
X126303884Y-96872419D02*
X126303884Y-95872419D01*
X126303884Y-95872419D02*
X126780074Y-95872419D01*
X127208646Y-96872419D02*
X127208646Y-95872419D01*
X127208646Y-95872419D02*
X127780074Y-96872419D01*
X127780074Y-96872419D02*
X127780074Y-95872419D01*
X128589598Y-96348609D02*
X128732455Y-96396228D01*
X128732455Y-96396228D02*
X128780074Y-96443847D01*
X128780074Y-96443847D02*
X128827693Y-96539085D01*
X128827693Y-96539085D02*
X128827693Y-96681942D01*
X128827693Y-96681942D02*
X128780074Y-96777180D01*
X128780074Y-96777180D02*
X128732455Y-96824800D01*
X128732455Y-96824800D02*
X128637217Y-96872419D01*
X128637217Y-96872419D02*
X128256265Y-96872419D01*
X128256265Y-96872419D02*
X128256265Y-95872419D01*
X128256265Y-95872419D02*
X128589598Y-95872419D01*
X128589598Y-95872419D02*
X128684836Y-95920038D01*
X128684836Y-95920038D02*
X128732455Y-95967657D01*
X128732455Y-95967657D02*
X128780074Y-96062895D01*
X128780074Y-96062895D02*
X128780074Y-96158133D01*
X128780074Y-96158133D02*
X128732455Y-96253371D01*
X128732455Y-96253371D02*
X128684836Y-96300990D01*
X128684836Y-96300990D02*
X128589598Y-96348609D01*
X128589598Y-96348609D02*
X128256265Y-96348609D01*
X126803884Y-81872419D02*
X126803884Y-80872419D01*
X127280074Y-81872419D02*
X127280074Y-80872419D01*
X127280074Y-80872419D02*
X127851502Y-81872419D01*
X127851502Y-81872419D02*
X127851502Y-80872419D01*
X128851502Y-81872419D02*
X128280074Y-81872419D01*
X128565788Y-81872419D02*
X128565788Y-80872419D01*
X128565788Y-80872419D02*
X128470550Y-81015276D01*
X128470550Y-81015276D02*
X128375312Y-81110514D01*
X128375312Y-81110514D02*
X128280074Y-81158133D01*
X179327693Y-86372419D02*
X178756265Y-86372419D01*
X179041979Y-86372419D02*
X179041979Y-85372419D01*
X179041979Y-85372419D02*
X178946741Y-85515276D01*
X178946741Y-85515276D02*
X178851503Y-85610514D01*
X178851503Y-85610514D02*
X178756265Y-85658133D01*
X179708646Y-85467657D02*
X179756265Y-85420038D01*
X179756265Y-85420038D02*
X179851503Y-85372419D01*
X179851503Y-85372419D02*
X180089598Y-85372419D01*
X180089598Y-85372419D02*
X180184836Y-85420038D01*
X180184836Y-85420038D02*
X180232455Y-85467657D01*
X180232455Y-85467657D02*
X180280074Y-85562895D01*
X180280074Y-85562895D02*
X180280074Y-85658133D01*
X180280074Y-85658133D02*
X180232455Y-85800990D01*
X180232455Y-85800990D02*
X179661027Y-86372419D01*
X179661027Y-86372419D02*
X180280074Y-86372419D01*
X184827693Y-86372419D02*
X184256265Y-86372419D01*
X184541979Y-86372419D02*
X184541979Y-85372419D01*
X184541979Y-85372419D02*
X184446741Y-85515276D01*
X184446741Y-85515276D02*
X184351503Y-85610514D01*
X184351503Y-85610514D02*
X184256265Y-85658133D01*
X185684836Y-85705752D02*
X185684836Y-86372419D01*
X185446741Y-85324800D02*
X185208646Y-86039085D01*
X185208646Y-86039085D02*
X185827693Y-86039085D01*
X129920038Y-101672306D02*
X129872419Y-101767544D01*
X129872419Y-101767544D02*
X129872419Y-101910401D01*
X129872419Y-101910401D02*
X129920038Y-102053258D01*
X129920038Y-102053258D02*
X130015276Y-102148496D01*
X130015276Y-102148496D02*
X130110514Y-102196115D01*
X130110514Y-102196115D02*
X130300990Y-102243734D01*
X130300990Y-102243734D02*
X130443847Y-102243734D01*
X130443847Y-102243734D02*
X130634323Y-102196115D01*
X130634323Y-102196115D02*
X130729561Y-102148496D01*
X130729561Y-102148496D02*
X130824800Y-102053258D01*
X130824800Y-102053258D02*
X130872419Y-101910401D01*
X130872419Y-101910401D02*
X130872419Y-101815163D01*
X130872419Y-101815163D02*
X130824800Y-101672306D01*
X130824800Y-101672306D02*
X130777180Y-101624687D01*
X130777180Y-101624687D02*
X130443847Y-101624687D01*
X130443847Y-101624687D02*
X130443847Y-101815163D01*
X130872419Y-101196115D02*
X129872419Y-101196115D01*
X129872419Y-101196115D02*
X130872419Y-100624687D01*
X130872419Y-100624687D02*
X129872419Y-100624687D01*
X130872419Y-100148496D02*
X129872419Y-100148496D01*
X129872419Y-100148496D02*
X129872419Y-99910401D01*
X129872419Y-99910401D02*
X129920038Y-99767544D01*
X129920038Y-99767544D02*
X130015276Y-99672306D01*
X130015276Y-99672306D02*
X130110514Y-99624687D01*
X130110514Y-99624687D02*
X130300990Y-99577068D01*
X130300990Y-99577068D02*
X130443847Y-99577068D01*
X130443847Y-99577068D02*
X130634323Y-99624687D01*
X130634323Y-99624687D02*
X130729561Y-99672306D01*
X130729561Y-99672306D02*
X130824800Y-99767544D01*
X130824800Y-99767544D02*
X130872419Y-99910401D01*
X130872419Y-99910401D02*
X130872419Y-100148496D01*
X132814800Y-101743734D02*
X132862419Y-101600877D01*
X132862419Y-101600877D02*
X132862419Y-101362782D01*
X132862419Y-101362782D02*
X132814800Y-101267544D01*
X132814800Y-101267544D02*
X132767180Y-101219925D01*
X132767180Y-101219925D02*
X132671942Y-101172306D01*
X132671942Y-101172306D02*
X132576704Y-101172306D01*
X132576704Y-101172306D02*
X132481466Y-101219925D01*
X132481466Y-101219925D02*
X132433847Y-101267544D01*
X132433847Y-101267544D02*
X132386228Y-101362782D01*
X132386228Y-101362782D02*
X132338609Y-101553258D01*
X132338609Y-101553258D02*
X132290990Y-101648496D01*
X132290990Y-101648496D02*
X132243371Y-101696115D01*
X132243371Y-101696115D02*
X132148133Y-101743734D01*
X132148133Y-101743734D02*
X132052895Y-101743734D01*
X132052895Y-101743734D02*
X131957657Y-101696115D01*
X131957657Y-101696115D02*
X131910038Y-101648496D01*
X131910038Y-101648496D02*
X131862419Y-101553258D01*
X131862419Y-101553258D02*
X131862419Y-101315163D01*
X131862419Y-101315163D02*
X131910038Y-101172306D01*
X132767180Y-100172306D02*
X132814800Y-100219925D01*
X132814800Y-100219925D02*
X132862419Y-100362782D01*
X132862419Y-100362782D02*
X132862419Y-100458020D01*
X132862419Y-100458020D02*
X132814800Y-100600877D01*
X132814800Y-100600877D02*
X132719561Y-100696115D01*
X132719561Y-100696115D02*
X132624323Y-100743734D01*
X132624323Y-100743734D02*
X132433847Y-100791353D01*
X132433847Y-100791353D02*
X132290990Y-100791353D01*
X132290990Y-100791353D02*
X132100514Y-100743734D01*
X132100514Y-100743734D02*
X132005276Y-100696115D01*
X132005276Y-100696115D02*
X131910038Y-100600877D01*
X131910038Y-100600877D02*
X131862419Y-100458020D01*
X131862419Y-100458020D02*
X131862419Y-100362782D01*
X131862419Y-100362782D02*
X131910038Y-100219925D01*
X131910038Y-100219925D02*
X131957657Y-100172306D01*
X132862419Y-99267544D02*
X132862419Y-99743734D01*
X132862419Y-99743734D02*
X131862419Y-99743734D01*
X135175200Y-106756265D02*
X135127580Y-106899122D01*
X135127580Y-106899122D02*
X135127580Y-107137217D01*
X135127580Y-107137217D02*
X135175200Y-107232455D01*
X135175200Y-107232455D02*
X135222819Y-107280074D01*
X135222819Y-107280074D02*
X135318057Y-107327693D01*
X135318057Y-107327693D02*
X135413295Y-107327693D01*
X135413295Y-107327693D02*
X135508533Y-107280074D01*
X135508533Y-107280074D02*
X135556152Y-107232455D01*
X135556152Y-107232455D02*
X135603771Y-107137217D01*
X135603771Y-107137217D02*
X135651390Y-106946741D01*
X135651390Y-106946741D02*
X135699009Y-106851503D01*
X135699009Y-106851503D02*
X135746628Y-106803884D01*
X135746628Y-106803884D02*
X135841866Y-106756265D01*
X135841866Y-106756265D02*
X135937104Y-106756265D01*
X135937104Y-106756265D02*
X136032342Y-106803884D01*
X136032342Y-106803884D02*
X136079961Y-106851503D01*
X136079961Y-106851503D02*
X136127580Y-106946741D01*
X136127580Y-106946741D02*
X136127580Y-107184836D01*
X136127580Y-107184836D02*
X136079961Y-107327693D01*
X135127580Y-107756265D02*
X136127580Y-107756265D01*
X136127580Y-107756265D02*
X136127580Y-107994360D01*
X136127580Y-107994360D02*
X136079961Y-108137217D01*
X136079961Y-108137217D02*
X135984723Y-108232455D01*
X135984723Y-108232455D02*
X135889485Y-108280074D01*
X135889485Y-108280074D02*
X135699009Y-108327693D01*
X135699009Y-108327693D02*
X135556152Y-108327693D01*
X135556152Y-108327693D02*
X135365676Y-108280074D01*
X135365676Y-108280074D02*
X135270438Y-108232455D01*
X135270438Y-108232455D02*
X135175200Y-108137217D01*
X135175200Y-108137217D02*
X135127580Y-107994360D01*
X135127580Y-107994360D02*
X135127580Y-107756265D01*
X135413295Y-108708646D02*
X135413295Y-109184836D01*
X135127580Y-108613408D02*
X136127580Y-108946741D01*
X136127580Y-108946741D02*
X135127580Y-109280074D01*
D12*
X155054510Y-90515114D02*
X155554510Y-90515114D01*
X155768796Y-91300828D02*
X155054510Y-91300828D01*
X155054510Y-91300828D02*
X155054510Y-89800828D01*
X155054510Y-89800828D02*
X155768796Y-89800828D01*
X156340225Y-91229400D02*
X156554511Y-91300828D01*
X156554511Y-91300828D02*
X156911653Y-91300828D01*
X156911653Y-91300828D02*
X157054511Y-91229400D01*
X157054511Y-91229400D02*
X157125939Y-91157971D01*
X157125939Y-91157971D02*
X157197368Y-91015114D01*
X157197368Y-91015114D02*
X157197368Y-90872257D01*
X157197368Y-90872257D02*
X157125939Y-90729400D01*
X157125939Y-90729400D02*
X157054511Y-90657971D01*
X157054511Y-90657971D02*
X156911653Y-90586542D01*
X156911653Y-90586542D02*
X156625939Y-90515114D01*
X156625939Y-90515114D02*
X156483082Y-90443685D01*
X156483082Y-90443685D02*
X156411653Y-90372257D01*
X156411653Y-90372257D02*
X156340225Y-90229400D01*
X156340225Y-90229400D02*
X156340225Y-90086542D01*
X156340225Y-90086542D02*
X156411653Y-89943685D01*
X156411653Y-89943685D02*
X156483082Y-89872257D01*
X156483082Y-89872257D02*
X156625939Y-89800828D01*
X156625939Y-89800828D02*
X156983082Y-89800828D01*
X156983082Y-89800828D02*
X157197368Y-89872257D01*
X157840224Y-91300828D02*
X157840224Y-89800828D01*
X157840224Y-89800828D02*
X158411653Y-89800828D01*
X158411653Y-89800828D02*
X158554510Y-89872257D01*
X158554510Y-89872257D02*
X158625939Y-89943685D01*
X158625939Y-89943685D02*
X158697367Y-90086542D01*
X158697367Y-90086542D02*
X158697367Y-90300828D01*
X158697367Y-90300828D02*
X158625939Y-90443685D01*
X158625939Y-90443685D02*
X158554510Y-90515114D01*
X158554510Y-90515114D02*
X158411653Y-90586542D01*
X158411653Y-90586542D02*
X157840224Y-90586542D01*
X159197367Y-89800828D02*
X160125939Y-89800828D01*
X160125939Y-89800828D02*
X159625939Y-90372257D01*
X159625939Y-90372257D02*
X159840224Y-90372257D01*
X159840224Y-90372257D02*
X159983082Y-90443685D01*
X159983082Y-90443685D02*
X160054510Y-90515114D01*
X160054510Y-90515114D02*
X160125939Y-90657971D01*
X160125939Y-90657971D02*
X160125939Y-91015114D01*
X160125939Y-91015114D02*
X160054510Y-91157971D01*
X160054510Y-91157971D02*
X159983082Y-91229400D01*
X159983082Y-91229400D02*
X159840224Y-91300828D01*
X159840224Y-91300828D02*
X159411653Y-91300828D01*
X159411653Y-91300828D02*
X159268796Y-91229400D01*
X159268796Y-91229400D02*
X159197367Y-91157971D01*
X160697367Y-89943685D02*
X160768795Y-89872257D01*
X160768795Y-89872257D02*
X160911653Y-89800828D01*
X160911653Y-89800828D02*
X161268795Y-89800828D01*
X161268795Y-89800828D02*
X161411653Y-89872257D01*
X161411653Y-89872257D02*
X161483081Y-89943685D01*
X161483081Y-89943685D02*
X161554510Y-90086542D01*
X161554510Y-90086542D02*
X161554510Y-90229400D01*
X161554510Y-90229400D02*
X161483081Y-90443685D01*
X161483081Y-90443685D02*
X160625938Y-91300828D01*
X160625938Y-91300828D02*
X161554510Y-91300828D01*
D13*
X176666666Y-77994819D02*
X176666666Y-78709104D01*
X176666666Y-78709104D02*
X176619047Y-78851961D01*
X176619047Y-78851961D02*
X176523809Y-78947200D01*
X176523809Y-78947200D02*
X176380952Y-78994819D01*
X176380952Y-78994819D02*
X176285714Y-78994819D01*
X177047619Y-77994819D02*
X177666666Y-77994819D01*
X177666666Y-77994819D02*
X177333333Y-78375771D01*
X177333333Y-78375771D02*
X177476190Y-78375771D01*
X177476190Y-78375771D02*
X177571428Y-78423390D01*
X177571428Y-78423390D02*
X177619047Y-78471009D01*
X177619047Y-78471009D02*
X177666666Y-78566247D01*
X177666666Y-78566247D02*
X177666666Y-78804342D01*
X177666666Y-78804342D02*
X177619047Y-78899580D01*
X177619047Y-78899580D02*
X177571428Y-78947200D01*
X177571428Y-78947200D02*
X177476190Y-78994819D01*
X177476190Y-78994819D02*
X177190476Y-78994819D01*
X177190476Y-78994819D02*
X177095238Y-78947200D01*
X177095238Y-78947200D02*
X177047619Y-78899580D01*
X182166666Y-77994819D02*
X182166666Y-78709104D01*
X182166666Y-78709104D02*
X182119047Y-78851961D01*
X182119047Y-78851961D02*
X182023809Y-78947200D01*
X182023809Y-78947200D02*
X181880952Y-78994819D01*
X181880952Y-78994819D02*
X181785714Y-78994819D01*
X183071428Y-78328152D02*
X183071428Y-78994819D01*
X182833333Y-77947200D02*
X182595238Y-78661485D01*
X182595238Y-78661485D02*
X183214285Y-78661485D01*
X133491905Y-65994819D02*
X133491905Y-64994819D01*
X133491905Y-64994819D02*
X133730000Y-64994819D01*
X133730000Y-64994819D02*
X133872857Y-65042438D01*
X133872857Y-65042438D02*
X133968095Y-65137676D01*
X133968095Y-65137676D02*
X134015714Y-65232914D01*
X134015714Y-65232914D02*
X134063333Y-65423390D01*
X134063333Y-65423390D02*
X134063333Y-65566247D01*
X134063333Y-65566247D02*
X134015714Y-65756723D01*
X134015714Y-65756723D02*
X133968095Y-65851961D01*
X133968095Y-65851961D02*
X133872857Y-65947200D01*
X133872857Y-65947200D02*
X133730000Y-65994819D01*
X133730000Y-65994819D02*
X133491905Y-65994819D01*
X135015714Y-65994819D02*
X134444286Y-65994819D01*
X134730000Y-65994819D02*
X134730000Y-64994819D01*
X134730000Y-64994819D02*
X134634762Y-65137676D01*
X134634762Y-65137676D02*
X134539524Y-65232914D01*
X134539524Y-65232914D02*
X134444286Y-65280533D01*
X127238095Y-113804819D02*
X127238095Y-112804819D01*
X127238095Y-113281009D02*
X127809523Y-113281009D01*
X127809523Y-113804819D02*
X127809523Y-112804819D01*
X128238095Y-112900057D02*
X128285714Y-112852438D01*
X128285714Y-112852438D02*
X128380952Y-112804819D01*
X128380952Y-112804819D02*
X128619047Y-112804819D01*
X128619047Y-112804819D02*
X128714285Y-112852438D01*
X128714285Y-112852438D02*
X128761904Y-112900057D01*
X128761904Y-112900057D02*
X128809523Y-112995295D01*
X128809523Y-112995295D02*
X128809523Y-113090533D01*
X128809523Y-113090533D02*
X128761904Y-113233390D01*
X128761904Y-113233390D02*
X128190476Y-113804819D01*
X128190476Y-113804819D02*
X128809523Y-113804819D01*
X124564819Y-104833333D02*
X125279104Y-104833333D01*
X125279104Y-104833333D02*
X125421961Y-104880952D01*
X125421961Y-104880952D02*
X125517200Y-104976190D01*
X125517200Y-104976190D02*
X125564819Y-105119047D01*
X125564819Y-105119047D02*
X125564819Y-105214285D01*
X124564819Y-103928571D02*
X124564819Y-104119047D01*
X124564819Y-104119047D02*
X124612438Y-104214285D01*
X124612438Y-104214285D02*
X124660057Y-104261904D01*
X124660057Y-104261904D02*
X124802914Y-104357142D01*
X124802914Y-104357142D02*
X124993390Y-104404761D01*
X124993390Y-104404761D02*
X125374342Y-104404761D01*
X125374342Y-104404761D02*
X125469580Y-104357142D01*
X125469580Y-104357142D02*
X125517200Y-104309523D01*
X125517200Y-104309523D02*
X125564819Y-104214285D01*
X125564819Y-104214285D02*
X125564819Y-104023809D01*
X125564819Y-104023809D02*
X125517200Y-103928571D01*
X125517200Y-103928571D02*
X125469580Y-103880952D01*
X125469580Y-103880952D02*
X125374342Y-103833333D01*
X125374342Y-103833333D02*
X125136247Y-103833333D01*
X125136247Y-103833333D02*
X125041009Y-103880952D01*
X125041009Y-103880952D02*
X124993390Y-103928571D01*
X124993390Y-103928571D02*
X124945771Y-104023809D01*
X124945771Y-104023809D02*
X124945771Y-104214285D01*
X124945771Y-104214285D02*
X124993390Y-104309523D01*
X124993390Y-104309523D02*
X125041009Y-104357142D01*
X125041009Y-104357142D02*
X125136247Y-104404761D01*
X131071369Y-66621545D02*
X131071369Y-65621545D01*
X131071369Y-66097735D02*
X131642797Y-66097735D01*
X131642797Y-66621545D02*
X131642797Y-65621545D01*
X132642797Y-66621545D02*
X132071369Y-66621545D01*
X132357083Y-66621545D02*
X132357083Y-65621545D01*
X132357083Y-65621545D02*
X132261845Y-65764402D01*
X132261845Y-65764402D02*
X132166607Y-65859640D01*
X132166607Y-65859640D02*
X132071369Y-65907259D01*
X187238095Y-113804819D02*
X187238095Y-112804819D01*
X187238095Y-113281009D02*
X187809523Y-113281009D01*
X187809523Y-113804819D02*
X187809523Y-112804819D01*
X188714285Y-113138152D02*
X188714285Y-113804819D01*
X188476190Y-112757200D02*
X188238095Y-113471485D01*
X188238095Y-113471485D02*
X188857142Y-113471485D01*
X186666666Y-80724819D02*
X186666666Y-81439104D01*
X186666666Y-81439104D02*
X186619047Y-81581961D01*
X186619047Y-81581961D02*
X186523809Y-81677200D01*
X186523809Y-81677200D02*
X186380952Y-81724819D01*
X186380952Y-81724819D02*
X186285714Y-81724819D01*
X187047619Y-80724819D02*
X187714285Y-80724819D01*
X187714285Y-80724819D02*
X187285714Y-81724819D01*
X173954819Y-97333333D02*
X174669104Y-97333333D01*
X174669104Y-97333333D02*
X174811961Y-97380952D01*
X174811961Y-97380952D02*
X174907200Y-97476190D01*
X174907200Y-97476190D02*
X174954819Y-97619047D01*
X174954819Y-97619047D02*
X174954819Y-97714285D01*
X173954819Y-96380952D02*
X173954819Y-96857142D01*
X173954819Y-96857142D02*
X174431009Y-96904761D01*
X174431009Y-96904761D02*
X174383390Y-96857142D01*
X174383390Y-96857142D02*
X174335771Y-96761904D01*
X174335771Y-96761904D02*
X174335771Y-96523809D01*
X174335771Y-96523809D02*
X174383390Y-96428571D01*
X174383390Y-96428571D02*
X174431009Y-96380952D01*
X174431009Y-96380952D02*
X174526247Y-96333333D01*
X174526247Y-96333333D02*
X174764342Y-96333333D01*
X174764342Y-96333333D02*
X174859580Y-96380952D01*
X174859580Y-96380952D02*
X174907200Y-96428571D01*
X174907200Y-96428571D02*
X174954819Y-96523809D01*
X174954819Y-96523809D02*
X174954819Y-96761904D01*
X174954819Y-96761904D02*
X174907200Y-96857142D01*
X174907200Y-96857142D02*
X174859580Y-96904761D01*
X184657200Y-72833332D02*
X184704819Y-72690475D01*
X184704819Y-72690475D02*
X184704819Y-72452380D01*
X184704819Y-72452380D02*
X184657200Y-72357142D01*
X184657200Y-72357142D02*
X184609580Y-72309523D01*
X184609580Y-72309523D02*
X184514342Y-72261904D01*
X184514342Y-72261904D02*
X184419104Y-72261904D01*
X184419104Y-72261904D02*
X184323866Y-72309523D01*
X184323866Y-72309523D02*
X184276247Y-72357142D01*
X184276247Y-72357142D02*
X184228628Y-72452380D01*
X184228628Y-72452380D02*
X184181009Y-72642856D01*
X184181009Y-72642856D02*
X184133390Y-72738094D01*
X184133390Y-72738094D02*
X184085771Y-72785713D01*
X184085771Y-72785713D02*
X183990533Y-72833332D01*
X183990533Y-72833332D02*
X183895295Y-72833332D01*
X183895295Y-72833332D02*
X183800057Y-72785713D01*
X183800057Y-72785713D02*
X183752438Y-72738094D01*
X183752438Y-72738094D02*
X183704819Y-72642856D01*
X183704819Y-72642856D02*
X183704819Y-72404761D01*
X183704819Y-72404761D02*
X183752438Y-72261904D01*
X183704819Y-71928570D02*
X184704819Y-71690475D01*
X184704819Y-71690475D02*
X183990533Y-71499999D01*
X183990533Y-71499999D02*
X184704819Y-71309523D01*
X184704819Y-71309523D02*
X183704819Y-71071428D01*
X184704819Y-70166666D02*
X184704819Y-70738094D01*
X184704819Y-70452380D02*
X183704819Y-70452380D01*
X183704819Y-70452380D02*
X183847676Y-70547618D01*
X183847676Y-70547618D02*
X183942914Y-70642856D01*
X183942914Y-70642856D02*
X183990533Y-70738094D01*
X145883095Y-63594819D02*
X145883095Y-64404342D01*
X145883095Y-64404342D02*
X145930714Y-64499580D01*
X145930714Y-64499580D02*
X145978333Y-64547200D01*
X145978333Y-64547200D02*
X146073571Y-64594819D01*
X146073571Y-64594819D02*
X146264047Y-64594819D01*
X146264047Y-64594819D02*
X146359285Y-64547200D01*
X146359285Y-64547200D02*
X146406904Y-64499580D01*
X146406904Y-64499580D02*
X146454523Y-64404342D01*
X146454523Y-64404342D02*
X146454523Y-63594819D01*
X147454523Y-64594819D02*
X146883095Y-64594819D01*
X147168809Y-64594819D02*
X147168809Y-63594819D01*
X147168809Y-63594819D02*
X147073571Y-63737676D01*
X147073571Y-63737676D02*
X146978333Y-63832914D01*
X146978333Y-63832914D02*
X146883095Y-63880533D01*
X181833333Y-102609580D02*
X181785714Y-102657200D01*
X181785714Y-102657200D02*
X181642857Y-102704819D01*
X181642857Y-102704819D02*
X181547619Y-102704819D01*
X181547619Y-102704819D02*
X181404762Y-102657200D01*
X181404762Y-102657200D02*
X181309524Y-102561961D01*
X181309524Y-102561961D02*
X181261905Y-102466723D01*
X181261905Y-102466723D02*
X181214286Y-102276247D01*
X181214286Y-102276247D02*
X181214286Y-102133390D01*
X181214286Y-102133390D02*
X181261905Y-101942914D01*
X181261905Y-101942914D02*
X181309524Y-101847676D01*
X181309524Y-101847676D02*
X181404762Y-101752438D01*
X181404762Y-101752438D02*
X181547619Y-101704819D01*
X181547619Y-101704819D02*
X181642857Y-101704819D01*
X181642857Y-101704819D02*
X181785714Y-101752438D01*
X181785714Y-101752438D02*
X181833333Y-101800057D01*
X182785714Y-102704819D02*
X182214286Y-102704819D01*
X182500000Y-102704819D02*
X182500000Y-101704819D01*
X182500000Y-101704819D02*
X182404762Y-101847676D01*
X182404762Y-101847676D02*
X182309524Y-101942914D01*
X182309524Y-101942914D02*
X182214286Y-101990533D01*
X130166666Y-96264819D02*
X130166666Y-96979104D01*
X130166666Y-96979104D02*
X130119047Y-97121961D01*
X130119047Y-97121961D02*
X130023809Y-97217200D01*
X130023809Y-97217200D02*
X129880952Y-97264819D01*
X129880952Y-97264819D02*
X129785714Y-97264819D01*
X131166666Y-97264819D02*
X130595238Y-97264819D01*
X130880952Y-97264819D02*
X130880952Y-96264819D01*
X130880952Y-96264819D02*
X130785714Y-96407676D01*
X130785714Y-96407676D02*
X130690476Y-96502914D01*
X130690476Y-96502914D02*
X130595238Y-96550533D01*
X181571369Y-66788093D02*
X181571369Y-65788093D01*
X181571369Y-66264283D02*
X182142797Y-66264283D01*
X182142797Y-66788093D02*
X182142797Y-65788093D01*
X182523750Y-65788093D02*
X183142797Y-65788093D01*
X183142797Y-65788093D02*
X182809464Y-66169045D01*
X182809464Y-66169045D02*
X182952321Y-66169045D01*
X182952321Y-66169045D02*
X183047559Y-66216664D01*
X183047559Y-66216664D02*
X183095178Y-66264283D01*
X183095178Y-66264283D02*
X183142797Y-66359521D01*
X183142797Y-66359521D02*
X183142797Y-66597616D01*
X183142797Y-66597616D02*
X183095178Y-66692854D01*
X183095178Y-66692854D02*
X183047559Y-66740474D01*
X183047559Y-66740474D02*
X182952321Y-66788093D01*
X182952321Y-66788093D02*
X182666607Y-66788093D01*
X182666607Y-66788093D02*
X182571369Y-66740474D01*
X182571369Y-66740474D02*
X182523750Y-66692854D01*
%TO.C,J3*%
D14*
X175620000Y-79540000D02*
X177000000Y-79540000D01*
X175620000Y-80920000D02*
X175620000Y-79540000D01*
X175620000Y-82190000D02*
X175620000Y-87380000D01*
X175620000Y-82190000D02*
X178380000Y-82190000D01*
X175620000Y-87380000D02*
X178380000Y-87380000D01*
X178380000Y-82190000D02*
X178380000Y-87380000D01*
%TO.C,J4*%
X181120000Y-79540000D02*
X182500000Y-79540000D01*
X181120000Y-80920000D02*
X181120000Y-79540000D01*
X181120000Y-82190000D02*
X181120000Y-87380000D01*
X181120000Y-82190000D02*
X183880000Y-82190000D01*
X181120000Y-87380000D02*
X183880000Y-87380000D01*
X183880000Y-82190000D02*
X183880000Y-87380000D01*
%TO.C,D1*%
X131670000Y-67955000D02*
X131670000Y-71045000D01*
X131670000Y-67955170D02*
G75*
G02*
X137220000Y-69500000I2560000J-1544830D01*
G01*
X137220000Y-69500000D02*
G75*
G02*
X131670000Y-71044830I-2990000J0D01*
G01*
X136730000Y-69500000D02*
G75*
G02*
X131730000Y-69500000I-2500000J0D01*
G01*
X131730000Y-69500000D02*
G75*
G02*
X136730000Y-69500000I2500000J0D01*
G01*
%TO.C,J6*%
X126550000Y-103170000D02*
X127880000Y-103170000D01*
X126550000Y-104500000D02*
X126550000Y-103170000D01*
X129150000Y-103170000D02*
X136830000Y-103170000D01*
X129150000Y-105830000D02*
X129150000Y-103170000D01*
X129150000Y-105830000D02*
X136830000Y-105830000D01*
X136830000Y-105830000D02*
X136830000Y-103170000D01*
%TO.C,J7*%
X185670000Y-77230000D02*
X185670000Y-69550000D01*
X185670000Y-79830000D02*
X185670000Y-78500000D01*
X187000000Y-79830000D02*
X185670000Y-79830000D01*
X188330000Y-69550000D02*
X185670000Y-69550000D01*
X188330000Y-77230000D02*
X185670000Y-77230000D01*
X188330000Y-77230000D02*
X188330000Y-69550000D01*
%TO.C,J5*%
X175500000Y-98380000D02*
X175500000Y-97000000D01*
X176880000Y-98380000D02*
X175500000Y-98380000D01*
X178150000Y-95620000D02*
X185880000Y-95620000D01*
X178150000Y-98380000D02*
X178150000Y-95620000D01*
X178150000Y-98380000D02*
X185880000Y-98380000D01*
X185880000Y-98380000D02*
X185880000Y-95620000D01*
%TO.C,J2*%
X179130000Y-117670000D02*
X180460000Y-117670000D01*
X179130000Y-119000000D02*
X179130000Y-117670000D01*
X181730000Y-117670000D02*
X184330000Y-117670000D01*
X181730000Y-120330000D02*
X181730000Y-117670000D01*
X181730000Y-120330000D02*
X184330000Y-120330000D01*
X184330000Y-120330000D02*
X184330000Y-117670000D01*
%TO.C,SW1*%
X173780000Y-66480000D02*
X183220000Y-66480000D01*
X173780000Y-76520000D02*
X173780000Y-66480000D01*
X173780000Y-76520000D02*
X183220000Y-76520000D01*
X176900000Y-73350000D02*
X176900000Y-69550000D01*
X180200000Y-69550000D02*
X176900000Y-69550000D01*
X180200000Y-73350000D02*
X176900000Y-73350000D01*
X180200000Y-73350000D02*
X180200000Y-69550000D01*
X182470000Y-66230000D02*
X183470000Y-66230000D01*
X183220000Y-76520000D02*
X183220000Y-66480000D01*
X183470000Y-67230000D02*
X183470000Y-66230000D01*
%TO.C,U1*%
D15*
X143720000Y-66025000D02*
X154789000Y-66025000D01*
X143720000Y-66025000D02*
X172230000Y-66025000D01*
X143720000Y-116975000D02*
X143720000Y-66025000D01*
X143720000Y-116975000D02*
X143720000Y-66025000D01*
X143720000Y-116975000D02*
X149090000Y-116975000D01*
X149090000Y-116975000D02*
X166780000Y-116975000D01*
X154789000Y-66025000D02*
X161500000Y-66025000D01*
X161500000Y-66025000D02*
X172230000Y-66025000D01*
X166780000Y-116975000D02*
X172230000Y-116975000D01*
X172230000Y-66025000D02*
X172230000Y-116975000D01*
X172230000Y-66025000D02*
X172230000Y-116975000D01*
X172230000Y-116975000D02*
X143720000Y-116975000D01*
D16*
X143250000Y-75985000D02*
G75*
G02*
X143050000Y-75985000I-100000J0D01*
G01*
X143050000Y-75985000D02*
G75*
G02*
X143250000Y-75985000I100000J0D01*
G01*
%TO.C,C1*%
D14*
X176520354Y-105625000D02*
X177520354Y-105625000D01*
X177020354Y-105125000D02*
X177020354Y-106125000D01*
X182000000Y-103420000D02*
X182000000Y-113580000D01*
X182040000Y-103420000D02*
X182040000Y-113580000D01*
X182080000Y-103421000D02*
X182080000Y-113579000D01*
X182120000Y-103421000D02*
X182120000Y-113579000D01*
X182160000Y-103423000D02*
X182160000Y-113577000D01*
X182200000Y-103424000D02*
X182200000Y-113576000D01*
X182240000Y-103426000D02*
X182240000Y-113574000D01*
X182280000Y-103428000D02*
X182280000Y-113572000D01*
X182320000Y-103430000D02*
X182320000Y-113570000D01*
X182360000Y-103433000D02*
X182360000Y-113567000D01*
X182400000Y-103436000D02*
X182400000Y-113564000D01*
X182440000Y-103439000D02*
X182440000Y-113561000D01*
X182480000Y-103443000D02*
X182480000Y-113557000D01*
X182520000Y-103446000D02*
X182520000Y-113554000D01*
X182560000Y-103451000D02*
X182560000Y-113549000D01*
X182600000Y-103455000D02*
X182600000Y-113545000D01*
X182640000Y-103460000D02*
X182640000Y-113540000D01*
X182680000Y-103465000D02*
X182680000Y-113535000D01*
X182720000Y-103471000D02*
X182720000Y-113529000D01*
X182760000Y-103477000D02*
X182760000Y-113523000D01*
X182800000Y-103483000D02*
X182800000Y-113517000D01*
X182840000Y-103489000D02*
X182840000Y-113511000D01*
X182880000Y-103496000D02*
X182880000Y-113504000D01*
X182920000Y-103503000D02*
X182920000Y-113497000D01*
X182960000Y-103511000D02*
X182960000Y-113489000D01*
X183000000Y-103519000D02*
X183000000Y-113481000D01*
X183040000Y-103527000D02*
X183040000Y-113473000D01*
X183080000Y-103535000D02*
X183080000Y-113465000D01*
X183120000Y-103544000D02*
X183120000Y-113456000D01*
X183160000Y-103553000D02*
X183160000Y-113447000D01*
X183200000Y-103563000D02*
X183200000Y-113437000D01*
X183240000Y-103572000D02*
X183240000Y-113428000D01*
X183280000Y-103583000D02*
X183280000Y-107260000D01*
X183280000Y-109740000D02*
X183280000Y-113417000D01*
X183320000Y-103593000D02*
X183320000Y-107260000D01*
X183320000Y-109740000D02*
X183320000Y-113407000D01*
X183360000Y-103604000D02*
X183360000Y-107260000D01*
X183360000Y-109740000D02*
X183360000Y-113396000D01*
X183400000Y-103615000D02*
X183400000Y-107260000D01*
X183400000Y-109740000D02*
X183400000Y-113385000D01*
X183440000Y-103627000D02*
X183440000Y-107260000D01*
X183440000Y-109740000D02*
X183440000Y-113373000D01*
X183480000Y-103639000D02*
X183480000Y-107260000D01*
X183480000Y-109740000D02*
X183480000Y-113361000D01*
X183520000Y-103651000D02*
X183520000Y-107260000D01*
X183520000Y-109740000D02*
X183520000Y-113349000D01*
X183560000Y-103663000D02*
X183560000Y-107260000D01*
X183560000Y-109740000D02*
X183560000Y-113337000D01*
X183600000Y-103676000D02*
X183600000Y-107260000D01*
X183600000Y-109740000D02*
X183600000Y-113324000D01*
X183640000Y-103690000D02*
X183640000Y-107260000D01*
X183640000Y-109740000D02*
X183640000Y-113310000D01*
X183680000Y-103703000D02*
X183680000Y-107260000D01*
X183680000Y-109740000D02*
X183680000Y-113297000D01*
X183720000Y-103718000D02*
X183720000Y-107260000D01*
X183720000Y-109740000D02*
X183720000Y-113282000D01*
X183760000Y-103732000D02*
X183760000Y-107260000D01*
X183760000Y-109740000D02*
X183760000Y-113268000D01*
X183800000Y-103747000D02*
X183800000Y-107260000D01*
X183800000Y-109740000D02*
X183800000Y-113253000D01*
X183840000Y-103762000D02*
X183840000Y-107260000D01*
X183840000Y-109740000D02*
X183840000Y-113238000D01*
X183880000Y-103778000D02*
X183880000Y-107260000D01*
X183880000Y-109740000D02*
X183880000Y-113222000D01*
X183920000Y-103794000D02*
X183920000Y-107260000D01*
X183920000Y-109740000D02*
X183920000Y-113206000D01*
X183960000Y-103810000D02*
X183960000Y-107260000D01*
X183960000Y-109740000D02*
X183960000Y-113190000D01*
X184000000Y-103827000D02*
X184000000Y-107260000D01*
X184000000Y-109740000D02*
X184000000Y-113173000D01*
X184040000Y-103844000D02*
X184040000Y-107260000D01*
X184040000Y-109740000D02*
X184040000Y-113156000D01*
X184080000Y-103862000D02*
X184080000Y-107260000D01*
X184080000Y-109740000D02*
X184080000Y-113138000D01*
X184120000Y-103880000D02*
X184120000Y-107260000D01*
X184120000Y-109740000D02*
X184120000Y-113120000D01*
X184160000Y-103898000D02*
X184160000Y-107260000D01*
X184160000Y-109740000D02*
X184160000Y-113102000D01*
X184200000Y-103917000D02*
X184200000Y-107260000D01*
X184200000Y-109740000D02*
X184200000Y-113083000D01*
X184240000Y-103936000D02*
X184240000Y-107260000D01*
X184240000Y-109740000D02*
X184240000Y-113064000D01*
X184280000Y-103956000D02*
X184280000Y-107260000D01*
X184280000Y-109740000D02*
X184280000Y-113044000D01*
X184320000Y-103976000D02*
X184320000Y-107260000D01*
X184320000Y-109740000D02*
X184320000Y-113024000D01*
X184360000Y-103996000D02*
X184360000Y-107260000D01*
X184360000Y-109740000D02*
X184360000Y-113004000D01*
X184400000Y-104017000D02*
X184400000Y-107260000D01*
X184400000Y-109740000D02*
X184400000Y-112983000D01*
X184440000Y-104039000D02*
X184440000Y-107260000D01*
X184440000Y-109740000D02*
X184440000Y-112961000D01*
X184480000Y-104061000D02*
X184480000Y-107260000D01*
X184480000Y-109740000D02*
X184480000Y-112939000D01*
X184520000Y-104083000D02*
X184520000Y-107260000D01*
X184520000Y-109740000D02*
X184520000Y-112917000D01*
X184560000Y-104106000D02*
X184560000Y-107260000D01*
X184560000Y-109740000D02*
X184560000Y-112894000D01*
X184600000Y-104129000D02*
X184600000Y-107260000D01*
X184600000Y-109740000D02*
X184600000Y-112871000D01*
X184640000Y-104153000D02*
X184640000Y-107260000D01*
X184640000Y-109740000D02*
X184640000Y-112847000D01*
X184680000Y-104177000D02*
X184680000Y-107260000D01*
X184680000Y-109740000D02*
X184680000Y-112823000D01*
X184720000Y-104202000D02*
X184720000Y-107260000D01*
X184720000Y-109740000D02*
X184720000Y-112798000D01*
X184760000Y-104228000D02*
X184760000Y-107260000D01*
X184760000Y-109740000D02*
X184760000Y-112772000D01*
X184800000Y-104253000D02*
X184800000Y-107260000D01*
X184800000Y-109740000D02*
X184800000Y-112747000D01*
X184840000Y-104280000D02*
X184840000Y-107260000D01*
X184840000Y-109740000D02*
X184840000Y-112720000D01*
X184880000Y-104307000D02*
X184880000Y-107260000D01*
X184880000Y-109740000D02*
X184880000Y-112693000D01*
X184920000Y-104334000D02*
X184920000Y-107260000D01*
X184920000Y-109740000D02*
X184920000Y-112666000D01*
X184960000Y-104362000D02*
X184960000Y-107260000D01*
X184960000Y-109740000D02*
X184960000Y-112638000D01*
X185000000Y-104391000D02*
X185000000Y-107260000D01*
X185000000Y-109740000D02*
X185000000Y-112609000D01*
X185040000Y-104420000D02*
X185040000Y-107260000D01*
X185040000Y-109740000D02*
X185040000Y-112580000D01*
X185080000Y-104450000D02*
X185080000Y-107260000D01*
X185080000Y-109740000D02*
X185080000Y-112550000D01*
X185120000Y-104480000D02*
X185120000Y-107260000D01*
X185120000Y-109740000D02*
X185120000Y-112520000D01*
X185160000Y-104512000D02*
X185160000Y-107260000D01*
X185160000Y-109740000D02*
X185160000Y-112488000D01*
X185200000Y-104543000D02*
X185200000Y-107260000D01*
X185200000Y-109740000D02*
X185200000Y-112457000D01*
X185240000Y-104576000D02*
X185240000Y-107260000D01*
X185240000Y-109740000D02*
X185240000Y-112424000D01*
X185280000Y-104609000D02*
X185280000Y-107260000D01*
X185280000Y-109740000D02*
X185280000Y-112391000D01*
X185320000Y-104642000D02*
X185320000Y-107260000D01*
X185320000Y-109740000D02*
X185320000Y-112358000D01*
X185360000Y-104677000D02*
X185360000Y-107260000D01*
X185360000Y-109740000D02*
X185360000Y-112323000D01*
X185400000Y-104712000D02*
X185400000Y-107260000D01*
X185400000Y-109740000D02*
X185400000Y-112288000D01*
X185440000Y-104748000D02*
X185440000Y-107260000D01*
X185440000Y-109740000D02*
X185440000Y-112252000D01*
X185480000Y-104784000D02*
X185480000Y-107260000D01*
X185480000Y-109740000D02*
X185480000Y-112216000D01*
X185520000Y-104822000D02*
X185520000Y-107260000D01*
X185520000Y-109740000D02*
X185520000Y-112178000D01*
X185560000Y-104860000D02*
X185560000Y-107260000D01*
X185560000Y-109740000D02*
X185560000Y-112140000D01*
X185600000Y-104899000D02*
X185600000Y-107260000D01*
X185600000Y-109740000D02*
X185600000Y-112101000D01*
X185640000Y-104939000D02*
X185640000Y-107260000D01*
X185640000Y-109740000D02*
X185640000Y-112061000D01*
X185680000Y-104980000D02*
X185680000Y-107260000D01*
X185680000Y-109740000D02*
X185680000Y-112020000D01*
X185720000Y-105022000D02*
X185720000Y-107260000D01*
X185720000Y-109740000D02*
X185720000Y-111978000D01*
X185760000Y-105065000D02*
X185760000Y-111935000D01*
X185800000Y-105109000D02*
X185800000Y-111891000D01*
X185840000Y-105153000D02*
X185840000Y-111847000D01*
X185880000Y-105199000D02*
X185880000Y-111801000D01*
X185920000Y-105246000D02*
X185920000Y-111754000D01*
X185960000Y-105295000D02*
X185960000Y-111705000D01*
X186000000Y-105344000D02*
X186000000Y-111656000D01*
X186040000Y-105395000D02*
X186040000Y-111605000D01*
X186080000Y-105447000D02*
X186080000Y-111553000D01*
X186120000Y-105500000D02*
X186120000Y-111500000D01*
X186160000Y-105555000D02*
X186160000Y-111445000D01*
X186200000Y-105612000D02*
X186200000Y-111388000D01*
X186240000Y-105670000D02*
X186240000Y-111330000D01*
X186280000Y-105730000D02*
X186280000Y-111270000D01*
X186320000Y-105792000D02*
X186320000Y-111208000D01*
X186360000Y-105856000D02*
X186360000Y-111144000D01*
X186400000Y-105922000D02*
X186400000Y-111078000D01*
X186440000Y-105990000D02*
X186440000Y-111010000D01*
X186480000Y-106061000D02*
X186480000Y-110939000D01*
X186520000Y-106135000D02*
X186520000Y-110865000D01*
X186560000Y-106212000D02*
X186560000Y-110788000D01*
X186600000Y-106292000D02*
X186600000Y-110708000D01*
X186640000Y-106376000D02*
X186640000Y-110624000D01*
X186680000Y-106463000D02*
X186680000Y-110537000D01*
X186720000Y-106556000D02*
X186720000Y-110444000D01*
X186760000Y-106654000D02*
X186760000Y-110346000D01*
X186800000Y-106758000D02*
X186800000Y-110242000D01*
X186840000Y-106870000D02*
X186840000Y-110130000D01*
X186880000Y-106991000D02*
X186880000Y-110009000D01*
X186920000Y-107123000D02*
X186920000Y-109877000D01*
X186960000Y-107270000D02*
X186960000Y-109730000D01*
X187000000Y-107438000D02*
X187000000Y-109562000D01*
X187040000Y-107638000D02*
X187040000Y-109362000D01*
X187080000Y-107901000D02*
X187080000Y-109099000D01*
X187120000Y-108500000D02*
G75*
G02*
X176880000Y-108500000I-5120000J0D01*
G01*
X176880000Y-108500000D02*
G75*
G02*
X187120000Y-108500000I5120000J0D01*
G01*
%TO.C,J1*%
X129170000Y-92770000D02*
X129170000Y-77470000D01*
X129170000Y-95370000D02*
X129170000Y-94040000D01*
X130500000Y-95370000D02*
X129170000Y-95370000D01*
X131830000Y-77470000D02*
X129170000Y-77470000D01*
X131830000Y-92770000D02*
X129170000Y-92770000D01*
X131830000Y-92770000D02*
X131830000Y-77470000D01*
%TD*%
M02*
