%TF.GenerationSoftware,KiCad,Pcbnew,10.0.6*%
%TF.CreationDate,2026-09-12T23:49:27+05:30*%
%TF.ProjectId,ESP32SMARTROBOT,45535033-3253-44d4-9152-54524f424f54,rev?*%
%TF.SameCoordinates,Original*%
%TF.FileFunction,Copper,L1,Top*%
%TF.FilePolarity,Positive*%
%FSLAX46Y46*%
G04 Gerber Fmt 4.6, Leading zero omitted, Abs format (unit mm)*
G04 Created by KiCad (PCBNEW 10.0.6) date 2026-09-12 23:49:27*
%MOMM*%
%LPD*%
G01*
G04 APERTURE LIST*
G04 Aperture macros list*
%AMRoundRect*
0 Rectangle with rounded corners*
0 $1 Rounding radius*
0 $2 $3 $4 $5 $6 $7 $8 $9 X,Y pos of 4 corners*
0 Add a 4 corners polygon primitive as box body*
4,1,4,$2,$3,$4,$5,$6,$7,$8,$9,$2,$3,0*
0 Add four circle primitives for the rounded corners*
1,1,$1+$1,$2,$3*
1,1,$1+$1,$4,$5*
1,1,$1+$1,$6,$7*
1,1,$1+$1,$8,$9*
0 Add four rect primitives between the rounded corners*
20,1,$1+$1,$2,$3,$4,$5,0*
20,1,$1+$1,$4,$5,$6,$7,0*
20,1,$1+$1,$6,$7,$8,$9,0*
20,1,$1+$1,$8,$9,$2,$3,0*%
G04 Aperture macros list end*
%TA.AperFunction,ComponentPad*%
%ADD10R,1.700000X1.700000*%
%TD*%
%TA.AperFunction,ComponentPad*%
%ADD11C,1.700000*%
%TD*%
%TA.AperFunction,ComponentPad*%
%ADD12R,1.800000X1.800000*%
%TD*%
%TA.AperFunction,ComponentPad*%
%ADD13C,1.800000*%
%TD*%
%TA.AperFunction,ComponentPad*%
%ADD14C,0.700000*%
%TD*%
%TA.AperFunction,ComponentPad*%
%ADD15C,4.400000*%
%TD*%
%TA.AperFunction,ComponentPad*%
%ADD16R,2.000000X2.000000*%
%TD*%
%TA.AperFunction,ComponentPad*%
%ADD17C,2.000000*%
%TD*%
%TA.AperFunction,ComponentPad*%
%ADD18RoundRect,0.250000X-0.750000X-0.750000X0.750000X-0.750000X0.750000X0.750000X-0.750000X0.750000X0*%
%TD*%
%TA.AperFunction,Conductor*%
%ADD19C,0.500000*%
%TD*%
%TA.AperFunction,Conductor*%
%ADD20C,1.000000*%
%TD*%
G04 APERTURE END LIST*
D10*
%TO.P,J3,1,Pin_1_1*%
%TO.N,/5V PWR*%
X177000000Y-80920000D03*
D11*
%TO.P,J3,2,Pin_2_2*%
%TO.N,GND*%
X177000000Y-83460000D03*
%TO.P,J3,3,Pin_3_3*%
%TO.N,/GPIO12*%
X177000000Y-86000000D03*
%TD*%
D10*
%TO.P,J4,1,Pin_1_1*%
%TO.N,/5V PWR*%
X182500000Y-80920000D03*
D11*
%TO.P,J4,2,Pin_2_2*%
%TO.N,GND*%
X182500000Y-83460000D03*
%TO.P,J4,3,Pin_3_3*%
%TO.N,/GPIO14*%
X182500000Y-86000000D03*
%TD*%
D12*
%TO.P,D1,1,K_1*%
%TO.N,GND*%
X132960000Y-69500000D03*
D13*
%TO.P,D1,2,A_2*%
%TO.N,Net-(D1-A)*%
X135500000Y-69500000D03*
%TD*%
D14*
%TO.P,H2,1,1_1*%
%TO.N,unconnected-(H2-Pad1)_3*%
X126350000Y-116500000D03*
%TO.N,unconnected-(H2-Pad1)*%
X126833274Y-115333274D03*
%TO.N,unconnected-(H2-Pad1)_1*%
X126833274Y-117666726D03*
%TO.N,unconnected-(H2-Pad1)_4*%
X128000000Y-114850000D03*
D15*
%TO.N,unconnected-(H2-Pad1)_7*%
X128000000Y-116500000D03*
D14*
%TO.N,unconnected-(H2-Pad1)_2*%
X128000000Y-118150000D03*
%TO.N,unconnected-(H2-Pad1)_6*%
X129166726Y-115333274D03*
%TO.N,unconnected-(H2-Pad1)_5*%
X129166726Y-117666726D03*
%TO.N,unconnected-(H2-Pad1)_8*%
X129650000Y-116500000D03*
%TD*%
D10*
%TO.P,J6,1,Pin_1_1*%
%TO.N,/5V PWR*%
X127880000Y-104500000D03*
D11*
%TO.P,J6,2,Pin_2_2*%
%TO.N,GND*%
X130420000Y-104500000D03*
%TO.P,J6,3,Pin_3_3*%
%TO.N,/SCL*%
X132960000Y-104500000D03*
%TO.P,J6,4,Pin_4_4*%
%TO.N,/SDA*%
X135500000Y-104500000D03*
%TD*%
D14*
%TO.P,H1,1,1_1*%
%TO.N,unconnected-(H1-Pad1)*%
X126350000Y-66500000D03*
%TO.N,unconnected-(H1-Pad1)_2*%
X126833274Y-65333274D03*
%TO.N,unconnected-(H1-Pad1)_5*%
X126833274Y-67666726D03*
%TO.N,unconnected-(H1-Pad1)_8*%
X128000000Y-64850000D03*
D15*
%TO.N,unconnected-(H1-Pad1)_4*%
X128000000Y-66500000D03*
D14*
%TO.N,unconnected-(H1-Pad1)_3*%
X128000000Y-68150000D03*
%TO.N,unconnected-(H1-Pad1)_6*%
X129166726Y-65333274D03*
%TO.N,unconnected-(H1-Pad1)_7*%
X129166726Y-67666726D03*
%TO.N,unconnected-(H1-Pad1)_1*%
X129650000Y-66500000D03*
%TD*%
%TO.P,H4,1,1_1*%
%TO.N,unconnected-(H4-Pad1)_7*%
X186350000Y-116500000D03*
%TO.N,unconnected-(H4-Pad1)_1*%
X186833274Y-115333274D03*
%TO.N,unconnected-(H4-Pad1)*%
X186833274Y-117666726D03*
%TO.N,unconnected-(H4-Pad1)_8*%
X188000000Y-114850000D03*
D15*
%TO.N,unconnected-(H4-Pad1)_2*%
X188000000Y-116500000D03*
D14*
%TO.N,unconnected-(H4-Pad1)_6*%
X188000000Y-118150000D03*
%TO.N,unconnected-(H4-Pad1)_5*%
X189166726Y-115333274D03*
%TO.N,unconnected-(H4-Pad1)_3*%
X189166726Y-117666726D03*
%TO.N,unconnected-(H4-Pad1)_4*%
X189650000Y-116500000D03*
%TD*%
D10*
%TO.P,J7,1,Pin_1_1*%
%TO.N,/7V+ INPUT*%
X187000000Y-78500000D03*
D11*
%TO.P,J7,2,Pin_2_2*%
%TO.N,/7V+ OUTPUT*%
X187000000Y-75960000D03*
%TO.P,J7,3,Pin_3_3*%
%TO.N,/9V+ INPUT*%
X187000000Y-73420000D03*
%TO.P,J7,4,Pin_4_4*%
%TO.N,/9V+OUTPUT*%
X187000000Y-70880000D03*
%TD*%
D10*
%TO.P,J5,1,Pin_1_1*%
%TO.N,GND*%
X176880000Y-97000000D03*
D11*
%TO.P,J5,2,Pin_2_2*%
%TO.N,/ECHO*%
X179420000Y-97000000D03*
%TO.P,J5,3,Pin_3_3*%
%TO.N,/TRI*%
X181960000Y-97000000D03*
%TO.P,J5,4,Pin_4_4*%
%TO.N,/5V PWR*%
X184500000Y-97000000D03*
%TD*%
D10*
%TO.P,J2,1,Pin_1_1*%
%TO.N,GND*%
X180460000Y-119000000D03*
D11*
%TO.P,J2,2,Pin_2_2*%
%TO.N,/5V PWR*%
X183000000Y-119000000D03*
%TD*%
D12*
%TO.P,SW1,1,A_1*%
%TO.N,unconnected-(SW1-A-Pad1)*%
X181500000Y-69000000D03*
D13*
%TO.P,SW1,2,B_2*%
%TO.N,/7V+ INPUT*%
X181500000Y-71500000D03*
%TO.P,SW1,3,C_3*%
%TO.N,/7V+ OUTPUT*%
X181500000Y-74000000D03*
%TO.P,SW1,4,A_4*%
%TO.N,unconnected-(SW1-A-Pad4)*%
X175500000Y-69000000D03*
%TO.P,SW1,5,B_5*%
%TO.N,/9V+OUTPUT*%
X175500000Y-71500000D03*
%TO.P,SW1,6,C_6*%
%TO.N,/9V+ INPUT*%
X175500000Y-74000000D03*
%TD*%
D16*
%TO.P,U1,1,3V3_1*%
%TO.N,unconnected-(U1-3V3-Pad1)*%
X145300000Y-75985000D03*
D17*
%TO.P,U1,2,GND_2*%
%TO.N,GND*%
X145300000Y-78525000D03*
%TO.P,U1,3,D15_3*%
%TO.N,/IN1*%
X145300000Y-81065000D03*
%TO.P,U1,4,D2_4*%
%TO.N,/IN2*%
X145300000Y-83605000D03*
%TO.P,U1,5,D4_5*%
%TO.N,/IN3*%
X145300000Y-86145000D03*
%TO.P,U1,6,RX2_6*%
%TO.N,unconnected-(U1-RX2-Pad6)*%
X145300000Y-88685000D03*
%TO.P,U1,7,TX2_7*%
%TO.N,unconnected-(U1-TX2-Pad7)*%
X145300000Y-91225000D03*
%TO.P,U1,8,D5_8*%
%TO.N,/IN4*%
X145300000Y-93765000D03*
%TO.P,U1,9,D18_9*%
%TO.N,Net-(D1-A)*%
X145300000Y-96305000D03*
%TO.P,U1,10,D19_10*%
%TO.N,unconnected-(U1-D19-Pad10)*%
X145300000Y-98845000D03*
%TO.P,U1,11,D21_11*%
%TO.N,/SDA*%
X145300000Y-101385000D03*
%TO.P,U1,12,RX0_12*%
%TO.N,unconnected-(U1-RX0-Pad12)*%
X145300000Y-103925000D03*
%TO.P,U1,13,TX0_13*%
%TO.N,unconnected-(U1-TX0-Pad13)*%
X145300000Y-106465000D03*
%TO.P,U1,14,D22_14*%
%TO.N,/SCL*%
X145300000Y-109005000D03*
%TO.P,U1,15,D23_15*%
%TO.N,unconnected-(U1-D23-Pad15)*%
X145300000Y-111545000D03*
%TO.P,U1,16,EN_16*%
%TO.N,unconnected-(U1-EN-Pad16)*%
X170700000Y-111545000D03*
%TO.P,U1,17,VP_17*%
%TO.N,unconnected-(U1-VP-Pad17)*%
X170700000Y-109005000D03*
%TO.P,U1,18,VN_18*%
%TO.N,unconnected-(U1-VN-Pad18)*%
X170700000Y-106465000D03*
%TO.P,U1,19,D34_19*%
%TO.N,unconnected-(U1-D34-Pad19)*%
X170700000Y-103925000D03*
%TO.P,U1,20,D35_20*%
%TO.N,unconnected-(U1-D35-Pad20)*%
X170700000Y-101385000D03*
%TO.P,U1,21,D32_21*%
%TO.N,unconnected-(U1-D32-Pad21)*%
X170700000Y-98845000D03*
%TO.P,U1,22,D33_22*%
%TO.N,/ECHO*%
X170700000Y-96305000D03*
%TO.P,U1,23,D25_23*%
%TO.N,/TRI*%
X170700000Y-93765000D03*
%TO.P,U1,24,D26_24*%
%TO.N,/ENB*%
X170700000Y-91225000D03*
%TO.P,U1,25,D27_25*%
%TO.N,/ENA*%
X170700000Y-88685000D03*
%TO.P,U1,26,D14_26*%
%TO.N,/GPIO14*%
X170700000Y-86145000D03*
%TO.P,U1,27,D12_27*%
%TO.N,/GPIO12*%
X170700000Y-83605000D03*
%TO.P,U1,28,D13_28*%
%TO.N,unconnected-(U1-D13-Pad28)*%
X170700000Y-81065000D03*
%TO.P,U1,29,GND_29*%
%TO.N,GND*%
X170700000Y-78525000D03*
%TO.P,U1,30,VIN_30*%
%TO.N,/5V PWR*%
X170700000Y-75985000D03*
%TD*%
D18*
%TO.P,C1,1*%
%TO.N,GND*%
X179500000Y-108500000D03*
D17*
%TO.P,C1,2*%
%TO.N,/5V PWR*%
X184500000Y-108500000D03*
%TD*%
D11*
%TO.P,J1,1,Pin_1_1*%
%TO.N,/ENB*%
X130500000Y-94040000D03*
%TO.P,J1,2,Pin_2_2*%
%TO.N,/ENA*%
X130500000Y-91500000D03*
%TO.P,J1,3,Pin_3_3*%
%TO.N,/IN4*%
X130500000Y-88960000D03*
%TO.P,J1,4,Pin_4_4*%
%TO.N,/IN3*%
X130500000Y-86420000D03*
%TO.P,J1,5,Pin_5_5*%
%TO.N,/IN2*%
X130500000Y-83880000D03*
%TO.P,J1,6,Pin_6_6*%
%TO.N,/IN1*%
X130500000Y-81340000D03*
D10*
%TO.P,J1,7,Pin_7_7*%
%TO.N,GND*%
X130500000Y-78800000D03*
%TD*%
D14*
%TO.P,H3,1,1_1*%
%TO.N,unconnected-(H3-Pad1)_2*%
X186350000Y-66500000D03*
%TO.N,unconnected-(H3-Pad1)_1*%
X186833274Y-65333274D03*
%TO.N,unconnected-(H3-Pad1)_3*%
X186833274Y-67666726D03*
%TO.N,unconnected-(H3-Pad1)_8*%
X188000000Y-64850000D03*
D15*
%TO.N,unconnected-(H3-Pad1)*%
X188000000Y-66500000D03*
D14*
%TO.N,unconnected-(H3-Pad1)_5*%
X188000000Y-68150000D03*
%TO.N,unconnected-(H3-Pad1)_7*%
X189166726Y-65333274D03*
%TO.N,unconnected-(H3-Pad1)_4*%
X189166726Y-67666726D03*
%TO.N,unconnected-(H3-Pad1)_6*%
X189650000Y-66500000D03*
%TD*%
%TO.N,GND*%
D19*
X171525000Y-78525000D02*
X170700000Y-78525000D01*
X176460000Y-83460000D02*
X171525000Y-78525000D01*
X177000000Y-83460000D02*
X176460000Y-83460000D01*
X182500000Y-83460000D02*
X177000000Y-83460000D01*
%TO.N,/5V PWR*%
D20*
X132000000Y-120000000D02*
X176500000Y-120000000D01*
X184500000Y-111500000D02*
X184500000Y-108500000D01*
X132000000Y-108620000D02*
X132000000Y-120000000D01*
X127880000Y-104500000D02*
X132000000Y-108620000D01*
X177000000Y-119500000D02*
X177000000Y-112500000D01*
X178000000Y-111500000D02*
X184500000Y-111500000D01*
X176500000Y-120000000D02*
X177000000Y-119500000D01*
X177000000Y-112500000D02*
X178000000Y-111500000D01*
%TO.N,/GPIO12*%
D19*
X171595000Y-84500000D02*
X170700000Y-83605000D01*
X174500000Y-84500000D02*
X171595000Y-84500000D01*
X177000000Y-86000000D02*
X176000000Y-86000000D01*
X176000000Y-86000000D02*
X174500000Y-84500000D01*
%TO.N,/GPIO14*%
X173055000Y-88500000D02*
X182500000Y-88500000D01*
X170700000Y-86145000D02*
X173055000Y-88500000D01*
X182500000Y-88500000D02*
X182500000Y-86000000D01*
%TO.N,Net-(D1-A)*%
X153000000Y-88605000D02*
X145300000Y-96305000D01*
X153000000Y-71000000D02*
X153000000Y-88605000D01*
X135500000Y-69500000D02*
X137000000Y-71000000D01*
X137000000Y-71000000D02*
X153000000Y-71000000D01*
%TO.N,/SCL*%
X137465000Y-109005000D02*
X145300000Y-109005000D01*
X132960000Y-104500000D02*
X137465000Y-109005000D01*
%TO.N,/SDA*%
X135500000Y-101000000D02*
X144915000Y-101000000D01*
X144915000Y-101000000D02*
X145300000Y-101385000D01*
X135500000Y-104500000D02*
X135500000Y-101000000D01*
%TO.N,/7V+ INPUT*%
D20*
X179500000Y-71500000D02*
X179000000Y-72000000D01*
X179000000Y-78500000D02*
X187000000Y-78500000D01*
X181500000Y-71500000D02*
X179500000Y-71500000D01*
X179000000Y-72000000D02*
X179000000Y-78500000D01*
%TO.N,/7V+ OUTPUT*%
X182000000Y-76000000D02*
X182040000Y-75960000D01*
X182040000Y-75960000D02*
X187000000Y-75960000D01*
X181500000Y-74000000D02*
X181500000Y-75500000D01*
X181500000Y-75500000D02*
X182000000Y-76000000D01*
%TO.N,/9V+ INPUT*%
X191500000Y-65000000D02*
X191500000Y-72000000D01*
X173500000Y-63000000D02*
X189500000Y-63000000D01*
X191500000Y-72000000D02*
X190240000Y-73260000D01*
X175500000Y-74000000D02*
X173500000Y-72000000D01*
X173500000Y-72000000D02*
X173500000Y-63000000D01*
X189500000Y-63000000D02*
X191500000Y-65000000D01*
X190240000Y-73260000D02*
X187000000Y-73260000D01*
%TO.N,/9V+OUTPUT*%
X179000000Y-65500000D02*
X183000000Y-65500000D01*
X184720000Y-70720000D02*
X187000000Y-70720000D01*
X184500000Y-70500000D02*
X184720000Y-70720000D01*
X179000000Y-68000000D02*
X179000000Y-65500000D01*
X184500000Y-67000000D02*
X184500000Y-70500000D01*
X175500000Y-71500000D02*
X179000000Y-68000000D01*
X183000000Y-65500000D02*
X184500000Y-67000000D01*
%TO.N,/ECHO*%
D19*
X172505000Y-94500000D02*
X170700000Y-96305000D01*
X178000000Y-94500000D02*
X172505000Y-94500000D01*
X178000000Y-95580000D02*
X178000000Y-94500000D01*
X179420000Y-97000000D02*
X178000000Y-95580000D01*
%TO.N,/TRI*%
X171005000Y-93460000D02*
X170700000Y-93765000D01*
X181960000Y-97000000D02*
X181960000Y-93460000D01*
X181960000Y-93460000D02*
X171005000Y-93460000D01*
%TO.N,/IN1*%
X145025000Y-81340000D02*
X145300000Y-81065000D01*
X130500000Y-81340000D02*
X145025000Y-81340000D01*
%TO.N,/IN2*%
X145025000Y-83880000D02*
X145300000Y-83605000D01*
X130500000Y-83880000D02*
X145025000Y-83880000D01*
%TO.N,/IN3*%
X145025000Y-86420000D02*
X145300000Y-86145000D01*
X130500000Y-86420000D02*
X145025000Y-86420000D01*
%TO.N,/IN4*%
X135305000Y-93765000D02*
X145300000Y-93765000D01*
X130500000Y-88960000D02*
X135305000Y-93765000D01*
%TD*%
M02*
