%TF.GenerationSoftware,KiCad,Pcbnew,10.0.6*%
%TF.CreationDate,2026-09-12T23:49:27+05:30*%
%TF.ProjectId,ESP32SMARTROBOT,45535033-3253-44d4-9152-54524f424f54,rev?*%
%TF.SameCoordinates,Original*%
%TF.FileFunction,Soldermask,Top*%
%TF.FilePolarity,Negative*%
%FSLAX46Y46*%
G04 Gerber Fmt 4.6, Leading zero omitted, Abs format (unit mm)*
G04 Created by KiCad (PCBNEW 10.0.6) date 2026-09-12 23:49:27*
%MOMM*%
%LPD*%
G01*
G04 APERTURE LIST*
G04 Aperture macros list*
%AMRoundRect*
0 Rectangle with rounded corners*
0 $1 Rounding radius*
0 $2 $3 $4 $5 $6 $7 $8 $9 X,Y pos of 4 corners*
0 Add a 4 corners polygon primitive as box body*
4,1,4,$2,$3,$4,$5,$6,$7,$8,$9,$2,$3,0*
0 Add four circle primitives for the rounded corners*
1,1,$1+$1,$2,$3*
1,1,$1+$1,$4,$5*
1,1,$1+$1,$6,$7*
1,1,$1+$1,$8,$9*
0 Add four rect primitives between the rounded corners*
20,1,$1+$1,$2,$3,$4,$5,0*
20,1,$1+$1,$4,$5,$6,$7,0*
20,1,$1+$1,$6,$7,$8,$9,0*
20,1,$1+$1,$8,$9,$2,$3,0*%
G04 Aperture macros list end*
%ADD10R,1.700000X1.700000*%
%ADD11C,1.700000*%
%ADD12R,1.800000X1.800000*%
%ADD13C,1.800000*%
%ADD14C,0.700000*%
%ADD15C,4.400000*%
%ADD16C,3.000000*%
%ADD17RoundRect,0.102000X-1.000000X-1.000000X1.000000X-1.000000X1.000000X1.000000X-1.000000X1.000000X0*%
%ADD18C,2.204000*%
%ADD19RoundRect,0.250000X-0.750000X-0.750000X0.750000X-0.750000X0.750000X0.750000X-0.750000X0.750000X0*%
%ADD20C,2.000000*%
G04 APERTURE END LIST*
D10*
%TO.C,J3*%
X177000000Y-80920000D03*
D11*
X177000000Y-83460000D03*
X177000000Y-86000000D03*
%TD*%
D10*
%TO.C,J4*%
X182500000Y-80920000D03*
D11*
X182500000Y-83460000D03*
X182500000Y-86000000D03*
%TD*%
D12*
%TO.C,D1*%
X132960000Y-69500000D03*
D13*
X135500000Y-69500000D03*
%TD*%
D14*
%TO.C,H2*%
X126350000Y-116500000D03*
X126833274Y-115333274D03*
X126833274Y-117666726D03*
X128000000Y-114850000D03*
D15*
X128000000Y-116500000D03*
D14*
X128000000Y-118150000D03*
X129166726Y-115333274D03*
X129166726Y-117666726D03*
X129650000Y-116500000D03*
%TD*%
D10*
%TO.C,J6*%
X127880000Y-104500000D03*
D11*
X130420000Y-104500000D03*
X132960000Y-104500000D03*
X135500000Y-104500000D03*
%TD*%
D14*
%TO.C,H1*%
X126350000Y-66500000D03*
X126833274Y-65333274D03*
X126833274Y-67666726D03*
X128000000Y-64850000D03*
D15*
X128000000Y-66500000D03*
D14*
X128000000Y-68150000D03*
X129166726Y-65333274D03*
X129166726Y-67666726D03*
X129650000Y-66500000D03*
%TD*%
%TO.C,H4*%
X186350000Y-116500000D03*
X186833274Y-115333274D03*
X186833274Y-117666726D03*
X188000000Y-114850000D03*
D15*
X188000000Y-116500000D03*
D14*
X188000000Y-118150000D03*
X189166726Y-115333274D03*
X189166726Y-117666726D03*
X189650000Y-116500000D03*
%TD*%
D10*
%TO.C,J7*%
X187000000Y-78500000D03*
D11*
X187000000Y-75960000D03*
X187000000Y-73420000D03*
X187000000Y-70880000D03*
%TD*%
D10*
%TO.C,J5*%
X176880000Y-97000000D03*
D11*
X179420000Y-97000000D03*
X181960000Y-97000000D03*
X184500000Y-97000000D03*
%TD*%
D10*
%TO.C,J2*%
X180460000Y-119000000D03*
D11*
X183000000Y-119000000D03*
%TD*%
D12*
%TO.C,SW1*%
X181500000Y-69000000D03*
D13*
X181500000Y-71500000D03*
X181500000Y-74000000D03*
X175500000Y-69000000D03*
X175500000Y-71500000D03*
X175500000Y-74000000D03*
%TD*%
D16*
%TO.C,U1*%
X145720000Y-68025000D03*
X145720000Y-114975000D03*
X170230000Y-68025000D03*
X170230000Y-114975000D03*
D17*
X145300000Y-75985000D03*
D18*
X145300000Y-78525000D03*
X145300000Y-81065000D03*
X145300000Y-83605000D03*
X145300000Y-86145000D03*
X145300000Y-88685000D03*
X145300000Y-91225000D03*
X145300000Y-93765000D03*
X145300000Y-96305000D03*
X145300000Y-98845000D03*
X145300000Y-101385000D03*
X145300000Y-103925000D03*
X145300000Y-106465000D03*
X145300000Y-109005000D03*
X145300000Y-111545000D03*
X170700000Y-111545000D03*
X170700000Y-109005000D03*
X170700000Y-106465000D03*
X170700000Y-103925000D03*
X170700000Y-101385000D03*
X170700000Y-98845000D03*
X170700000Y-96305000D03*
X170700000Y-93765000D03*
X170700000Y-91225000D03*
X170700000Y-88685000D03*
X170700000Y-86145000D03*
X170700000Y-83605000D03*
X170700000Y-81065000D03*
X170700000Y-78525000D03*
X170700000Y-75985000D03*
%TD*%
D19*
%TO.C,C1*%
X179500000Y-108500000D03*
D20*
X184500000Y-108500000D03*
%TD*%
D11*
%TO.C,J1*%
X130500000Y-94040000D03*
X130500000Y-91500000D03*
X130500000Y-88960000D03*
X130500000Y-86420000D03*
X130500000Y-83880000D03*
X130500000Y-81340000D03*
D10*
X130500000Y-78800000D03*
%TD*%
D14*
%TO.C,H3*%
X186350000Y-66500000D03*
X186833274Y-65333274D03*
X186833274Y-67666726D03*
X188000000Y-64850000D03*
D15*
X188000000Y-66500000D03*
D14*
X188000000Y-68150000D03*
X189166726Y-65333274D03*
X189166726Y-67666726D03*
X189650000Y-66500000D03*
%TD*%
M02*
